<svg width="24" height="24" viewBox="0 0 24 24" fill="none" xmlns="http://www.w3.org/2000/svg">
<g clip-path="url(#clip0_570_550)">
<path d="M19 10.2474V11.2516C19 11.4024 18.9325 11.5452 18.8162 11.6405C18.6999 11.7359 18.5471 11.7738 18.4 11.7436L16.26 11.3118C15.6024 11.1719 15.0086 10.8192 14.57 10.3077L13.57 9.18308L12.76 13.8924L14.21 15.2781C14.4943 15.5507 14.6955 15.899 14.79 16.2822L16.06 22.3974C16.094 22.5456 16.0579 22.7014 15.962 22.8192C15.8662 22.937 15.7214 23.0037 15.57 22.9998H14.57C14.3309 23.0039 14.1239 22.8342 14.08 22.5982L12.94 17.0454C12.8995 16.8374 12.7945 16.6476 12.64 16.5031L9.30997 13.3502C9.06498 13.1188 8.95225 12.7792 9.00997 12.4465L9.64997 8.72118L8.38997 9.56464C8.19083 9.69692 8.0454 9.89638 7.97997 10.127L7.25997 12.6674C7.19775 12.8816 7.00219 13.0289 6.77997 13.0289H5.77997C5.62259 13.0289 5.4744 12.9545 5.37997 12.8281C5.28555 12.7016 5.25591 12.5379 5.29997 12.3862L6.15997 9.2132C6.29589 8.74895 6.59418 8.34959 6.99997 8.08858L8.86997 6.83342C9.68856 6.28962 10.6484 5.99977 11.63 6H12.14C13.022 5.9995 13.8596 6.3888 14.43 7.06437L16.1 9.01238C16.2457 9.18802 16.4468 9.30845 16.67 9.35378L18.6 9.73535C18.8404 9.78441 19.0098 10.0013 19 10.2474ZM9.41997 15.84V15.95C9.38981 16.1314 9.31023 16.3009 9.18997 16.44L6.45997 19.51C6.2694 19.7044 6.2694 20.0156 6.45997 20.21L7.21997 20.88C7.31871 20.9678 7.44872 21.012 7.58052 21.0026C7.71231 20.9932 7.83472 20.931 7.91997 20.83L10.81 17.55C10.8687 17.4878 10.9222 17.4209 10.97 17.35L9.41997 15.84ZM13 5C14.1045 5 15 4.10457 15 3C15 1.89543 14.1045 1 13 1C11.8954 1 11 1.89543 11 3C11 4.10457 11.8954 5 13 5Z" fill="white"/>
</g>
<defs>
<clipPath id="clip0_570_550">
<rect width="24" height="24" fill="white"/>
</clipPath>
</defs>
</svg>
