<svg width="32" height="8" viewBox="0 0 32 8" fill="none" xmlns="http://www.w3.org/2000/svg">
<g clip-path="url(#clip0_16_2)">
<path d="M26.422 1.708L26.485 5.297H26.454L25.412 1.708H23.704V6.229H24.834L24.771 2.515H24.802L25.917 6.229H27.552V1.708H26.422ZM4.891 1.708L4.037 6.276H5.271L5.901 2.12H5.927L6.542 6.276H7.766L6.922 1.708H4.891ZM11.797 1.708L11.234 5.192H11.203L10.635 1.708H8.77L8.681 6.276H9.827L9.858 2.167H9.868L10.634 6.276H11.795L12.561 2.167H12.592L12.623 6.276H13.769L13.66 1.708H11.797ZM2.109 4.979C2.156 5.083 2.14 5.239 2.125 5.312C2.094 5.468 1.984 5.619 1.682 5.619C1.39 5.619 1.224 5.452 1.224 5.208V4.765H0V5.114C0 6.14 0.807 6.442 1.667 6.442C2.49 6.442 3.177 6.156 3.287 5.406C3.35 5.01 3.303 4.75 3.287 4.656C3.073 3.692 1.329 3.422 1.209 2.885C1.193 2.791 1.193 2.703 1.209 2.64C1.24 2.489 1.344 2.333 1.62 2.333C1.896 2.333 2.047 2.5 2.047 2.744V3.02H3.193V2.702C3.193 1.707 2.292 1.556 1.651 1.556C0.838 1.556 0.167 1.827 0.047 2.561C0.016 2.759 0 2.946 0.063 3.176C0.245 4.119 1.881 4.395 2.11 4.978L2.109 4.979ZM16.979 4.979C17.026 5.083 17.01 5.224 16.995 5.312C16.964 5.468 16.854 5.619 16.552 5.619C16.26 5.619 16.094 5.452 16.094 5.208V4.765H14.87V5.114C14.87 6.124 15.662 6.432 16.521 6.432C17.344 6.432 18.016 6.156 18.125 5.39C18.188 4.994 18.141 4.749 18.125 4.64C17.943 3.692 16.214 3.406 16.094 2.885C16.078 2.791 16.078 2.703 16.094 2.64C16.12 2.489 16.229 2.333 16.505 2.333C16.765 2.333 16.932 2.5 16.932 2.744V3.02H18.062V2.702C18.062 1.707 17.177 1.556 16.536 1.556C15.723 1.556 15.067 1.811 14.947 2.561C14.916 2.759 14.916 2.946 14.957 3.176C15.145 4.119 16.749 4.379 16.978 4.978L16.979 4.979ZM20.828 5.589C21.151 5.589 21.239 5.375 21.271 5.256C21.287 5.209 21.287 5.131 21.287 5.084V1.709H22.448V4.995C22.448 5.084 22.448 5.255 22.432 5.297C22.359 6.156 21.682 6.432 20.843 6.432C20.004 6.432 19.333 6.156 19.254 5.297C19.254 5.255 19.238 5.083 19.238 4.995V1.709H20.399V5.084C20.399 5.147 20.399 5.209 20.415 5.256C20.415 5.376 20.509 5.589 20.826 5.589H20.828ZM30.365 5.542C30.704 5.542 30.808 5.328 30.839 5.209C30.855 5.162 30.855 5.084 30.855 5.042V4.381H30.381V3.709H32.001V4.933C32.001 5.027 32.001 5.084 31.985 5.24C31.907 6.079 31.188 6.37 30.381 6.37C29.568 6.37 28.855 6.078 28.777 5.24C28.761 5.084 28.761 5.026 28.761 4.933V3.006C28.761 2.933 28.777 2.777 28.777 2.704C28.881 1.845 29.569 1.569 30.381 1.569C31.188 1.569 31.891 1.845 31.985 2.704C32.001 2.839 32.001 3.006 32.001 3.006V3.162H30.855V2.902C30.855 2.902 30.855 2.793 30.839 2.73C30.823 2.626 30.73 2.397 30.381 2.397C30.042 2.397 29.954 2.611 29.923 2.73C29.907 2.793 29.907 2.871 29.907 2.949V5.043C29.907 5.1 29.907 5.163 29.923 5.21C29.923 5.33 30.043 5.543 30.366 5.543L30.365 5.542Z" fill="black"/>
</g>
<defs>
<clipPath id="clip0_16_2">
<rect width="32" height="8" fill="white"/>
</clipPath>
</defs>
</svg>
