<svg width="48" height="44" viewBox="0 0 48 44" fill="none" xmlns="http://www.w3.org/2000/svg">
<rect x="0.5" width="47" height="44" rx="12" fill="#2C2C2C"/>
<path fill-rule="evenodd" clip-rule="evenodd" d="M29.5 25.9C29.5 26.5 29 27 28.4 27H19.6C19 27 18.5 26.5 18.5 25.9V18C18.5 17.5 19 17 19.6 17H28.5C29.1 17 29.6 17.5 29.6 18.1V25.9H29.5ZM24 14C25.2 14 26.1 14.9 26.3 16H21.7C21.9 14.9 22.8 14 24 14ZM28.4 16H27.3C27.1 14.3 25.7 13 24 13C22.3 13 20.9 14.3 20.7 16H19.6C18.4 16 17.5 16.9 17.5 18.1V26C17.5 27.1 18.4 28 19.6 28H28.5C29.6 28 30.6 27.1 30.6 25.9V18C30.5 16.9 29.6 16 28.4 16Z" fill="white"/>
</svg>
