<svg width="24" height="24" viewBox="0 0 24 24" fill="none" xmlns="http://www.w3.org/2000/svg">
<g clip-path="url(#clip0_559_550)">
<path d="M8.00142 8C8.00142 5.79086 9.79295 4 12.0029 4C14.2129 4 16.0044 5.79086 16.0044 8C16.0044 10.2091 14.2129 12 12.0029 12C10.9417 12 9.92386 11.5786 9.17343 10.8284C8.423 10.0783 8.00142 9.06087 8.00142 8ZM19.8959 18.55L18.4554 15.66C17.9464 14.6408 16.9039 13.9978 15.7644 14H8.24151C7.10197 13.9978 6.05948 14.6408 5.55049 15.66L4.10994 18.55C3.95392 18.8595 3.96935 19.2277 4.15072 19.5231C4.3321 19.8185 4.65356 19.999 5.00028 20H19.0056C19.3523 19.999 19.6738 19.8185 19.8551 19.5231C20.0365 19.2277 20.0519 18.8595 19.8959 18.55Z" fill="#333333"/>
</g>
<defs>
<clipPath id="clip0_559_550">
<rect width="24" height="24" fill="white"/>
</clipPath>
</defs>
</svg>
