<svg width="21" height="28" viewBox="0 0 21 28" fill="none" xmlns="http://www.w3.org/2000/svg">
<g clip-path="url(#clip0_232_30)">
<path d="M12.6992 3.0482C12.5238 2.70205 12.2426 2.42084 11.8965 2.24545C11.7222 2.15783 11.5364 2.09512 11.3446 2.05915C11.1476 2.02333 10.9481 2.00355 10.7479 2C10.5641 1.9943 10.3206 2 10.1271 2H3.76525C3.68275 2 3.60145 2 3.52075 2.00025C3.21433 1.99131 2.90775 2.01103 2.605 2.05915C2.4132 2.09515 2.22739 2.15786 2.053 2.24545C1.70702 2.42099 1.42594 2.70216 1.2505 3.0482C1.16294 3.22253 1.10023 3.40827 1.0642 3.6C1.03401 3.762 1.01563 3.92598 1.0092 4.09065C1.0014 4.25325 1.0004 4.4295 1.00015 4.59705V4.8175V22.6755C1.00015 22.7499 1.00015 22.8234 1.00015 22.896C1.00015 23.0635 1.0014 23.2397 1.0092 23.4024C1.01564 23.5671 1.03402 23.731 1.0642 23.893C1.10023 24.0848 1.16294 24.2706 1.2505 24.445C1.42597 24.7911 1.70713 25.0723 2.0532 25.2478C2.22759 25.3354 2.4134 25.3981 2.6052 25.434C2.80217 25.4699 3.00173 25.4897 3.2019 25.4933C3.3856 25.499 3.62925 25.4983 3.82275 25.4983C6.18325 25.4983 6.99555 25.5 9.356 25.5C9.29685 25.45 9.246 25.3807 9.171 25.3188C9.07236 25.2162 8.983 25.105 8.90395 24.9866C8.80771 24.8465 8.73246 24.693 8.6806 24.5312C8.62814 24.365 8.58759 24.1953 8.55925 24.0234C8.53129 23.8746 8.5144 23.724 8.5087 23.5728C8.50135 23.4233 8.5004 23.2615 8.50015 23.1077C8.50015 23.0404 8.50015 22.9725 8.50015 22.9035V6.0966C8.50015 6.0276 8.50015 5.9597 8.50015 5.8924C8.50015 5.7385 8.50135 5.5767 8.5087 5.4274C8.51455 5.27614 8.53145 5.1255 8.55925 4.9767C8.59232 4.80028 8.65 4.62938 8.7306 4.469C8.89195 4.1506 9.15061 3.89192 9.469 3.73055C9.62944 3.64995 9.80039 3.59227 9.97685 3.5592C10.2524 3.51363 10.5317 3.49397 10.811 3.50045C10.8915 3.5 10.973 3.5 11.0558 3.5H12.9326M6.1675 5.3404C6.1675 5.47235 6.1675 5.5642 6.16725 5.641C6.167 5.7165 6.16625 5.77905 6.1643 5.8365C6.16177 5.94908 6.1491 6.0612 6.12645 6.1715C6.10234 6.28666 6.06237 6.39792 6.0077 6.5021C5.89406 6.71768 5.71788 6.89386 5.5023 7.0075C5.3981 7.0621 5.28687 7.10208 5.17175 7.1263C5.06144 7.14891 4.94933 7.16156 4.83675 7.1641C4.77925 7.1661 4.71675 7.1668 4.6412 7.167C4.5644 7.16735 4.4725 7.1673 4.34055 7.1673H3.65965C3.5277 7.1673 3.4358 7.1673 3.359 7.167C3.28345 7.167 3.22095 7.1661 3.16345 7.1641C3.05088 7.16156 2.93876 7.14891 2.82845 7.1263C2.71333 7.10208 2.6021 7.0621 2.4979 7.0075C2.28232 6.89386 2.10615 6.71768 1.9925 6.5021C1.93783 6.39792 1.89787 6.28666 1.87375 6.1715C1.8511 6.0612 1.83843 5.94908 1.8359 5.8365C1.83395 5.77905 1.8332 5.7165 1.83295 5.641C1.8327 5.56415 1.8327 5.47235 1.8327 5.3404V4.6596C1.8327 4.5276 1.8327 4.4358 1.83295 4.359C1.83295 4.2834 1.83395 4.22085 1.8359 4.16345C1.83844 4.05087 1.8511 3.93875 1.87375 3.82845C1.89794 3.71331 1.9379 3.60206 1.9925 3.49785C2.1061 3.28225 2.2822 3.10602 2.4977 2.99225C2.6019 2.93765 2.71313 2.89767 2.82825 2.87345C2.93856 2.85084 3.05068 2.83819 3.16325 2.83565C3.22075 2.83365 3.28325 2.833 3.3588 2.8327H3.65945H4.34035H4.641C4.71655 2.833 4.77905 2.83365 4.83645 2.83565C4.94913 2.83817 5.06134 2.85083 5.17175 2.87345C5.28687 2.89767 5.3981 2.93765 5.5023 2.99225C5.71785 3.10593 5.89402 3.2821 6.0077 3.49765C6.06237 3.60184 6.10233 3.71309 6.12645 3.82825C6.1491 3.93855 6.16177 4.05067 6.1643 4.16325C6.16625 4.2207 6.167 4.28325 6.16725 4.3588C6.1675 4.43565 6.1675 4.52745 6.1675 4.6594V5.3404ZM18.5 12.654V23.3459C18.4828 23.5345 18.3921 23.7088 18.2476 23.8312C18.103 23.9535 17.9162 24.0142 17.7273 24H11.2727C11.0838 24.0142 10.897 23.9535 10.7524 23.8312C10.6079 23.7088 10.5172 23.5345 10.5 23.3459V12.6566C10.5173 12.4672 10.6082 12.2923 10.7533 12.1695C10.8984 12.0467 11.0859 11.9858 11.2755 12H17.7274C17.9162 11.9858 18.1031 12.0464 18.2476 12.1688C18.3922 12.2911 18.4828 12.4654 18.5 12.654ZM20 6.4107C19.9998 6.2568 19.9989 6.095 19.9917 5.9457C19.9857 5.79444 19.9688 5.64381 19.941 5.495C19.9079 5.31858 19.8503 5.14768 19.7697 4.9873C19.6082 4.66898 19.3496 4.41035 19.0313 4.2489C18.8708 4.16825 18.6999 4.11055 18.5234 4.0775C18.3422 4.04449 18.1587 4.02627 17.9746 4.023C17.8055 4.018 17.5814 4.0184 17.4034 4.0184H11.5434C11.4606 4.0184 11.3791 4.0184 11.2984 4.0188C11.0191 4.01227 10.7399 4.03193 10.4643 4.0775C10.2878 4.11057 10.1169 4.16827 9.95645 4.2489C9.63805 4.4102 9.37937 4.66883 9.218 4.9872C9.13739 5.14761 9.07971 5.31855 9.04665 5.495C9.01885 5.6438 9.00195 5.79444 8.9961 5.9457C8.98875 6.0951 9.00035 6.2569 9.0001 6.4107V6.61495V22.9034V23.1077C9.0001 23.2616 8.98875 23.4233 8.9961 23.5727C9.00195 23.7239 9.01885 23.8745 9.04665 24.0233C9.07971 24.1997 9.13739 24.3707 9.218 24.531C9.37936 24.8495 9.63801 25.1081 9.9564 25.2695C10.1169 25.3501 10.2878 25.4077 10.4643 25.4408C10.6455 25.4739 10.829 25.4921 11.0132 25.4953C11.1822 25.5006 11.4063 25.4998 11.5843 25.4998H17.4443H17.6893C17.9685 25.5063 18.2477 25.4866 18.5232 25.4411C18.6997 25.408 18.8706 25.3503 19.0311 25.2698C19.3494 25.1083 19.608 24.8496 19.7695 24.5313C19.8501 24.3709 19.9077 24.2 19.9408 24.0236C19.9686 23.8748 19.9855 23.7241 19.9915 23.5729C19.9987 23.4235 19.9996 23.2617 19.9998 23.1079C19.9998 23.0406 19.9998 22.9726 19.9998 22.9036V6.615C20 6.54595 20 6.47805 20 6.4107ZM9.83215 6.3524C9.8325 6.2771 9.8331 6.21475 9.83505 6.1574C9.83756 6.04518 9.85014 5.93342 9.87265 5.82345C9.8969 5.70874 9.93679 5.5979 9.9912 5.49405C10.1043 5.27933 10.2798 5.10388 10.4945 4.9908C10.5983 4.93639 10.7092 4.89654 10.8239 4.8724C10.9338 4.84987 11.0456 4.83727 11.1579 4.83475C11.215 4.8328 11.2773 4.83215 11.3526 4.83185C11.4291 4.83155 11.5207 4.83185 11.6521 4.83185H12.3479H12.5756C12.6488 4.83185 12.7298 4.83185 12.8033 4.8337C12.9552 4.8341 13.1065 4.85351 13.2536 4.8915C13.4209 4.93638 13.5766 5.01673 13.7102 5.1271C13.8437 5.23746 13.952 5.37526 14.0276 5.53115C14.0987 5.68159 14.1421 5.84362 14.1557 6.00945C14.1634 6.0885 14.1662 6.16765 14.1673 6.25945C14.1684 6.34335 14.1681 6.4742 14.1681 6.652V7.34835C14.1681 7.47975 14.1681 7.57125 14.1679 7.64775C14.1675 7.723 14.1669 7.78535 14.1649 7.8425C14.1624 7.95472 14.1497 8.06649 14.1272 8.17645C14.1031 8.29117 14.0633 8.40202 14.0089 8.50585C13.8956 8.7206 13.7201 8.8961 13.5054 9.00935C13.4015 9.06374 13.2907 9.10356 13.1761 9.1277C13.0661 9.15021 12.9543 9.16279 12.8421 9.1653C12.7849 9.1673 12.7226 9.168 12.6474 9.16825C12.5707 9.16855 12.4793 9.16825 12.3478 9.16825H11.6521C11.4743 9.16825 11.3434 9.16825 11.2596 9.1674C11.1678 9.16625 11.0887 9.16345 11.0096 9.1558C10.8437 9.1423 10.6817 9.0989 10.5313 9.0277C10.4102 8.96907 10.2998 8.89058 10.2046 8.7955C10.0549 8.64521 9.94699 8.45843 9.8916 8.25365C9.85364 8.10655 9.8342 7.95527 9.83375 7.80335C9.8319 7.7299 9.8319 7.64895 9.8319 7.57565C9.8319 7.49985 9.8319 7.4242 9.8319 7.34815V6.6518C9.8319 6.52035 9.8318 6.42885 9.83205 6.3524H9.83215ZM19 23.3459C18.9835 23.6675 18.8404 23.9694 18.6019 24.1857C18.3633 24.4019 18.0489 24.5149 17.7273 24.5H11.2727C10.9511 24.5149 10.6367 24.4019 10.3982 24.1857C10.1596 23.9694 10.0165 23.6675 10 23.3459V12.6566C10.0165 12.3343 10.16 12.0317 10.399 11.815C10.6381 11.5983 10.9532 11.485 11.2755 11.5H17.7274C18.049 11.4851 18.3634 11.5981 18.6019 11.8143C18.8404 12.0306 18.9835 12.3325 19 12.654V23.3459Z" fill="#1D1D1F"/>
</g>
<defs>
<clipPath id="clip0_232_30">
<rect width="20" height="27" fill="white" transform="translate(0.5 0.5)"/>
</clipPath>
</defs>
</svg>
