<svg width="35" height="35" viewBox="0 0 35 35" fill="none" xmlns="http://www.w3.org/2000/svg">
<rect x="0.5" y="0.5" width="34" height="34" rx="9.5" fill="#2C2C2C"/>
<path fill-rule="evenodd" clip-rule="evenodd" d="M16.7287 17.5L13.4302 14.1247C13.2006 13.8897 13.2259 13.5075 13.4845 13.3049V13.3049C13.706 13.1314 14.0226 13.1524 14.2192 13.3536L17.5 16.7108L20.7808 13.3536C20.9774 13.1524 21.294 13.1314 21.5155 13.3049V13.3049C21.7741 13.5075 21.7994 13.8897 21.5698 14.1247L18.2713 17.5L21.5698 20.8753C21.7994 21.1103 21.7741 21.4925 21.5155 21.6951V21.6951C21.294 21.8686 20.9774 21.8476 20.7808 21.6464L17.5 18.2892L14.2192 21.6464C14.0226 21.8476 13.706 21.8686 13.4845 21.6951V21.6951C13.2259 21.4925 13.2006 21.1103 13.4302 20.8753L16.7287 17.5Z" fill="white"/>
<rect x="0.5" y="0.5" width="34" height="34" rx="9.5" stroke="black"/>
</svg>
