<svg width="41" height="40" viewBox="0 0 41 40" fill="none" xmlns="http://www.w3.org/2000/svg">
<g clip-path="url(#clip0_232_44)">
<path d="M28.8333 35C26.0771 34.9976 23.3639 34.3164 20.9333 33.0167L20.1833 32.6C15.0013 29.8138 10.7528 25.5654 7.96667 20.3833L7.55 19.6333C6.21637 17.189 5.51188 14.4512 5.5 11.6667V10.55C5.4993 9.66159 5.85327 8.80966 6.48333 8.18333L9.3 5.36667C9.57354 5.091 9.95968 4.95812 10.3449 5.0071C10.7302 5.05607 11.0708 5.28132 11.2667 5.61667L15.0167 12.05C15.3959 12.7048 15.2864 13.5329 14.75 14.0667L11.6 17.2167C11.3384 17.4754 11.2774 17.875 11.45 18.2L12.0333 19.3C14.1284 23.1808 17.3154 26.362 21.2 28.45L22.3 29.05C22.625 29.2226 23.0246 29.1616 23.2833 28.9L26.4333 25.75C26.9671 25.2136 27.7952 25.1041 28.45 25.4833L34.8833 29.2333C35.2187 29.4292 35.4439 29.7698 35.4929 30.1551C35.5419 30.5403 35.409 30.9265 35.1333 31.2L32.3167 34.0167C31.6903 34.6467 30.8384 35.0007 29.95 35H28.8333Z" fill="#333333"/>
</g>
<defs>
<clipPath id="clip0_232_44">
<rect width="40" height="40" fill="white" transform="translate(0.5)"/>
</clipPath>
</defs>
</svg>
