<svg width="116" height="52" viewBox="0 0 116 52" fill="none" xmlns="http://www.w3.org/2000/svg">
<rect x="1" y="1" width="114" height="50" rx="9.5" fill="white"/>
<path d="M94.9394 28.4225C94.9394 26.1275 93.197 24.215 91.106 24.215C89.0151 24.215 87.2727 26.1275 87.2727 28.4225C87.2727 29.57 87.2727 36.965 87.2727 36.965H82.9747C82.9747 36.965 82.9747 30.845 82.9747 28.4225C82.9747 23.45 86.5757 19.4975 91.106 19.4975C95.6363 19.4975 99.2374 23.45 99.2374 28.4225C99.2374 30.9725 99.2374 36.965 99.2374 36.965H95.0555C94.9394 36.965 94.9394 29.57 94.9394 28.4225Z" fill="black"/>
<path d="M64.8535 28.4225C64.8535 23.45 68.4545 19.4975 72.9848 19.4975C77.5151 19.4975 81.1161 23.45 81.1161 28.4225C81.1161 33.395 77.5151 37.3475 72.9848 37.3475C68.5707 37.3475 64.8535 33.395 64.8535 28.4225ZM72.9848 32.63C75.1919 32.63 76.9343 30.7175 76.9343 28.295C76.9343 25.8725 75.1919 23.96 72.9848 23.96C70.7778 23.96 69.0353 25.8725 69.0353 28.295C69.1515 30.7175 70.8939 32.7575 72.9848 32.63C72.9848 32.7575 72.9848 32.7575 72.9848 32.63Z" fill="black"/>
<path d="M54.8636 25.235C54.2828 24.725 54.399 23.96 55.4444 23.705C57.303 23.3225 59.2778 23.705 60.904 24.5975L62.995 21.5375C61.3687 20.2625 59.3939 19.4975 57.4192 19.4975C57.4192 19.4975 52.7727 18.86 50.798 22.8125C49.8687 24.98 50.5657 27.53 52.4242 28.805C54.399 30.2075 58 30.7175 59.0455 31.355C60.0909 31.9925 59.6263 33.0125 58.3485 33.2675C56.1414 33.5225 53.9343 32.885 52.1919 31.61L50.101 34.67C51.8434 36.0725 53.9343 37.0925 56.0253 37.3475C56.0253 37.3475 60.4394 38.24 62.8788 34.7975C64.2727 32.7575 64.0404 29.825 62.1818 28.295C61.9495 28.04 61.601 27.9125 61.3687 27.785C59.1616 26.51 55.9091 26 54.8636 25.235Z" fill="black"/>
<path d="M34.7677 40.535C36.0454 41.4275 37.4394 42.065 38.8333 42.1925C43.4798 42.32 43.8283 36.965 43.8283 35.69C42.7828 36.71 41.3889 37.3475 39.9949 37.3475C35.5808 37.3475 31.9798 33.5225 31.8636 28.6775V28.55C31.8636 26.1275 31.8636 19.7525 31.8636 19.7525H36.1616C36.1616 19.7525 36.1616 27.4025 36.1616 28.55C36.1616 30.845 37.904 32.7575 39.9949 32.7575C42.0858 32.7575 43.8283 30.845 43.8283 28.55C43.8283 27.53 43.8283 19.7525 43.8283 19.7525H48.1262V28.55C48.1262 36.3275 48.4747 44.2325 41.6212 46.145C38.4848 46.91 35.1161 46.0175 32.5606 43.7225L34.7677 40.535Z" fill="black"/>
<path d="M29.6566 10.7H25.3586V19.37H21.4091C16.8788 19.37 13.2778 23.3225 13.2778 28.295C13.2778 33.2675 16.8788 37.22 21.4091 37.22C25.9394 37.22 29.5404 33.2675 29.5404 28.295C29.5404 25.8725 29.5404 19.37 29.5404 19.37L29.6566 10.7ZM25.3586 28.4225C25.3586 30.7175 23.6162 32.63 21.4091 32.63C19.3182 32.63 17.5758 30.7175 17.5758 28.295C17.5758 26 19.3182 24.0875 21.4091 24.0875H25.2424L25.3586 28.4225Z" fill="black"/>
<rect x="1" y="1" width="114" height="50" rx="9.5" stroke="black"/>
</svg>
