<svg width="42" height="30" viewBox="0 0 42 30" fill="none" xmlns="http://www.w3.org/2000/svg">
<path d="M21.9511 20.3535C32.2945 18.5054 40.2514 14.6108 39.7232 11.6546C39.195 8.69833 30.3818 7.79995 20.0384 9.64798C9.69497 11.496 1.73814 15.3906 2.26633 18.3469C2.79451 21.3031 11.6077 22.2015 21.9511 20.3535Z" fill="black"/>
<path d="M9.43751 15.7249C9.46195 15.8149 9.46195 15.9099 9.43751 15.9999C9.40756 16.0854 9.34946 16.1582 9.27272 16.2064C9.19599 16.2546 9.10516 16.2753 9.01513 16.2651C8.92509 16.255 8.84117 16.2145 8.77711 16.1505C8.71305 16.0864 8.67265 16.0024 8.66251 15.9124V15.5374H7.63751V15.8374C7.63751 16.6999 8.31251 16.9624 9.05001 16.9624C9.78751 16.9624 10.3 16.7249 10.4125 16.0749C10.4466 15.8638 10.4466 15.6485 10.4125 15.4374C10.25 14.6374 8.77501 14.3874 8.66251 13.9374C8.65 13.8713 8.65 13.8035 8.66251 13.7374C8.67489 13.6565 8.71848 13.5838 8.78391 13.5347C8.84935 13.4856 8.93142 13.4641 9.01251 13.4749C9.06042 13.4692 9.109 13.4742 9.15473 13.4895C9.20046 13.5049 9.2422 13.5303 9.2769 13.5638C9.31161 13.5973 9.33842 13.6381 9.35539 13.6833C9.37236 13.7285 9.37907 13.7768 9.37501 13.8249V14.0624H10.3375V13.7499C10.3375 12.9124 9.58751 12.7749 9.08751 12.7749C8.58751 12.7749 7.83751 12.9999 7.73751 13.6374C7.70035 13.8104 7.70035 13.9894 7.73751 14.1624C7.91251 14.9499 9.28751 15.1749 9.48751 15.6874M11.7875 12.9374L11.0625 16.8124H12.1125L12.6375 13.2999L13.15 16.8124H14.2L13.5 12.9374H11.7875ZM17.6375 12.9374L17.1625 15.8999L16.6875 12.9374H15.075L15 16.8124H16V13.3249L16.65 16.8124H17.625L18.275 13.3249V16.8124H19.2375L19.15 12.9374H17.6375Z" fill="white"/>
<path d="M22.025 15.7124C22.0499 15.8066 22.0499 15.9057 22.025 15.9999C22.0044 16.0814 21.9552 16.1528 21.8864 16.201C21.8175 16.2492 21.7336 16.271 21.65 16.2624C21.6006 16.2699 21.5502 16.2663 21.5023 16.2519C21.4545 16.2375 21.4104 16.2126 21.3734 16.1791C21.3363 16.1457 21.3071 16.1044 21.288 16.0582C21.2688 16.0121 21.2601 15.9623 21.2625 15.9124V15.5374H20.2125V15.8249C20.2125 16.6999 20.9 16.9499 21.625 16.9499C22.35 16.9499 22.875 16.7124 23 16.0749C23.0374 15.864 23.0374 15.6483 23 15.4374C22.8375 14.6249 21.375 14.3874 21.2625 13.9249C21.25 13.8588 21.25 13.791 21.2625 13.7249C21.2749 13.644 21.3185 13.5713 21.3839 13.5222C21.4493 13.4731 21.5314 13.4516 21.6125 13.4624C21.6599 13.4588 21.7076 13.4654 21.7524 13.4815C21.7971 13.4977 21.838 13.5231 21.8722 13.5562C21.9064 13.5892 21.9333 13.6291 21.951 13.6733C21.9687 13.7174 21.9769 13.7649 21.975 13.8124V14.0624H22.9375V13.7499C22.9375 12.8999 22.175 12.7749 21.6875 12.7749C21.2 12.7749 20.4375 12.9999 20.325 13.6249C20.2939 13.7985 20.2939 13.9763 20.325 14.1499C20.4875 14.9499 21.8625 15.1749 22.0625 15.6749" fill="white"/>
<path d="M25.275 16.2499C25.3627 16.2606 25.4511 16.2365 25.5212 16.1827C25.5913 16.129 25.6376 16.0499 25.65 15.9624C25.6567 15.9126 25.6567 15.8622 25.65 15.8124V12.9374H26.625V15.9749C26.55 16.6874 25.975 16.9249 25.2625 16.9249C24.55 16.9249 24.0125 16.6874 23.9125 15.9749V12.9374H24.8875V15.7999C24.8808 15.8497 24.8808 15.9001 24.8875 15.9499C24.8999 16.035 24.9444 16.1121 25.0117 16.1655C25.0791 16.219 25.1643 16.2447 25.25 16.2374M29.9875 12.9374L30.05 15.9749L29.1625 12.9374H27.725V16.7749H28.675V13.6249L29.6375 16.7749H31V12.9374H29.9875ZM33.3625 16.2499C33.4498 16.2612 33.5382 16.2392 33.6101 16.1882C33.6819 16.1373 33.7319 16.0611 33.75 15.9749C33.7562 15.9251 33.7562 15.8747 33.75 15.8249V15.2624H33.35V14.6999H34.75V15.7374C34.7551 15.8207 34.7551 15.9041 34.75 15.9874C34.6875 16.6999 34.075 16.9499 33.3875 16.9499C32.7 16.9499 32.1375 16.6999 32.025 15.9874C32.0199 15.9041 32.0199 15.8207 32.025 15.7374V13.8499C32.1125 13.1249 32.7 12.8999 33.3875 12.8999C34.075 12.8999 34.6375 13.1249 34.75 13.8499V14.2374H33.75V14.0249C33.7544 13.975 33.7544 13.9248 33.75 13.8749C33.7346 13.7864 33.6858 13.7072 33.6137 13.6537C33.5416 13.6002 33.4516 13.5765 33.3625 13.5874C33.2748 13.5767 33.1864 13.6008 33.1163 13.6546C33.0462 13.7083 32.9999 13.7874 32.9875 13.8749C32.9806 13.933 32.9806 13.9918 32.9875 14.0499V15.8249C32.9814 15.8747 32.9814 15.9251 32.9875 15.9749C33.0084 16.0621 33.0608 16.1384 33.1347 16.1892C33.2086 16.24 33.2986 16.2616 33.3875 16.2499" fill="white"/>
</svg>
