<svg width="17" height="39" viewBox="0 0 17 39" fill="none" xmlns="http://www.w3.org/2000/svg">
<g clip-path="url(#clip0_232_20)">
<path d="M15.8043 16.7973V15.2184C15.8043 14.2253 15.2773 13.3636 14.4958 12.8826C14.4968 12.8789 14.4987 12.8717 14.4987 12.8717C13.5657 12.3964 13.013 11.6228 12.9359 10.776L12.6319 8.11196C12.5371 7.3811 12.4187 7.27322 11.3052 7.03354C11.3052 7.03354 9.6351 6.81391 8.14063 6.81391C6.64616 6.81391 4.97603 7.03354 4.97603 7.03354C3.86257 7.27322 3.7441 7.3811 3.64936 8.11196L3.34536 10.776C3.26814 11.6227 2.73875 12.3964 1.80574 12.8717C1.80574 12.8717 1.80727 12.879 1.8081 12.8829C1.02682 13.3639 0.5 14.2255 0.5 15.2184V27.1939C0.5 28.2023 1.04421 29.074 1.84595 29.5502C1.84525 29.5543 1.84421 29.5609 1.84421 29.5609C2.77722 30.0362 3.26814 30.8762 3.34536 31.723L3.64936 34.387C3.7441 35.1179 3.86257 35.2258 4.97603 35.4654C4.97603 35.4654 6.64616 35.6851 8.14063 35.6851C9.6351 35.6851 11.3052 35.4654 11.3052 35.4654C12.4187 35.2258 12.5371 35.1179 12.6319 34.387L12.9359 31.723C13.013 30.8762 13.5657 30.0282 14.4987 29.5529C14.4987 29.5529 14.4961 29.5447 14.4922 29.5316C15.2757 29.0511 15.8043 28.1884 15.8043 27.1939V19.4784H16.5V16.7973H15.8043ZM15.1087 19.4784V27.1939C15.1087 28.0363 14.6007 28.761 13.8782 29.071C13.637 29.1744 13.3721 29.2319 13.094 29.2319H3.21033C2.93228 29.2319 2.6673 29.1745 2.42612 29.071C1.70369 28.761 1.19565 28.0363 1.19565 27.1939V15.2184C1.19565 14.4408 1.63336 13.7716 2.26807 13.4281C2.55057 13.2752 2.86821 13.1803 3.2104 13.1803H13.0941C13.4363 13.1803 13.7538 13.2752 14.0363 13.4281C14.671 13.7716 15.1087 14.4407 15.1087 15.2184V16.7973V19.4784ZM11.8922 34.5762C11.7648 34.6447 11.3618 34.7338 11.1889 34.7711C10.9713 34.7985 9.47009 34.9815 8.14063 34.9815C6.81103 34.9815 5.30981 34.7985 5.09228 34.7711C4.91941 34.7338 4.51635 34.6447 4.38897 34.5762C4.37777 34.5401 4.36094 34.4642 4.34042 34.3064L4.03809 31.6585C3.98007 31.0215 3.73437 30.4325 3.35433 29.9356H12.9595C12.5607 30.4388 12.3008 31.0282 12.2449 31.6424L11.9422 34.2957C11.9206 34.4619 11.9035 34.5398 11.8922 34.5762ZM4.38904 7.92288C4.51649 7.85441 4.91969 7.76532 5.09242 7.72802C5.30988 7.70058 6.80859 7.51762 8.14063 7.51762C9.47009 7.51762 10.9713 7.70051 11.189 7.72802C11.3618 7.76532 11.7649 7.85441 11.8923 7.92288C11.9035 7.95891 11.9203 8.03491 11.9408 8.19268L12.2432 10.8406C12.2981 11.4429 12.5398 11.9979 12.9211 12.4767H3.37256C3.74557 12.0018 3.9823 11.4514 4.03642 10.8568L4.3391 8.20352C4.36066 8.03723 4.37777 7.95933 4.38904 7.92288Z" fill="#1D1D1F"/>
</g>
<defs>
<clipPath id="clip0_232_20">
<rect width="16" height="38" fill="white" transform="translate(0.5 0.5)"/>
</clipPath>
</defs>
</svg>
